<svg xmlns="http://www.w3.org/2000/svg" viewBox="0 0 24 24" version="1.1">
  <path d="M14.484264 1.946352C12.400848 2.154648 10.695408 3.3160320000000003 9.636792 5.247432C8.924328 6.547295999999999 8.552088 8.234112000000001 8.639784 9.765504C8.701224 10.838544 8.904312 11.658336 9.299592 12.428856000000001C9.371112 12.568296 9.427416000000001 12.684576 9.424704 12.687312C9.4146 12.697392 9.008712000000001 12.375744 8.791032 12.185112C8.497992 11.928552000000002 8.433984 11.896248 8.24268 11.908416C7.980767999999999 11.925096 7.806431999999999 12.094968 7.7826960000000005 12.356544C7.763712 12.566040000000001 7.823208 12.672 8.095776 12.914015999999998C8.569992000000001 13.33512 9.068808 13.686552 9.545615999999999 13.93548C9.786024 14.061 9.810672 14.068776 9.928848 14.056584C10.083816 14.0406 10.218792 13.967784 10.292304 13.860456000000001L10.347792 13.77948 10.510896 13.905503999999999C10.70856 14.05824 11.017536000000002 14.222256000000002 11.241432 14.293344000000001L11.406864 14.345856000000001 11.289432 14.383920000000002C10.359744000000001 14.68512 9.089568000000002 14.746512 7.968 14.544432C6.493992 14.278848 5.24472 13.655616000000002 4.3354800000000004 12.732263999999999C3.452424 11.835504 2.9952240000000003 10.748136 2.930352 9.39048C2.90976 8.959368000000001 2.8944 8.900952 2.768736 8.775264C2.659584 8.666112 2.569728 8.629752 2.412 8.630856000000001C2.196408 8.632392 2.039304 8.73684 1.957272 8.933232C1.8920160000000001 9.089424 1.9142160000000001 9.681144 2.006568 10.248C2.20596 11.471616 2.777328 12.592416 3.64716 13.466208C4.81392 14.638248 6.375144 15.360263999999999 8.292 15.61428C8.684832 15.666336000000001 9.576648 15.684768000000002 9.9876 15.649344000000001C10.94064 15.567167999999999 11.679504000000001 15.371352 12.402000000000001 15.009504C12.590088 14.915280000000001 12.744 14.843712000000002 12.744 14.850456000000001C12.744 14.869104000000002 12.491736000000001 15.178584 12.284496 15.414216000000001C12.182784 15.529824000000001 12.086736 15.663336000000001 12.07104 15.710904C12.002496 15.9186 12.091128000000001 16.168104000000003 12.27852 16.29504C12.394728 16.37376 12.627072000000002 16.391568 12.75372 16.331471999999998C12.993048 16.217904 13.674528000000002 15.348504 14.040456 14.689944C14.228544 14.351400000000002 14.248824 14.231904 14.151792 14.033591999999999C14.107560000000001 13.943184 14.058959999999999 13.887216 13.983047999999998 13.83924L13.876439999999999 13.771848 13.946472 13.668072C14.05248 13.510992 14.195064 13.209384 14.258544 13.008000000000001C14.358096000000002 12.692160000000001 14.396904 12.711192 14.491104000000002 13.122C14.618496000000002 13.677648000000001 14.664 14.087520000000001 14.664 14.679216C14.664 16.393632 14.08716 18.086976 13.102896 19.261944C12.142944 20.407872 10.935504 20.995824000000002 9.39048 21.069648C8.959368000000001 21.09024 8.900952 21.1056 8.775264 21.231264C8.666112 21.340416 8.629752 21.430272 8.630856000000001 21.588C8.632392 21.803592 8.73684 21.960696 8.933232 22.042728C9.089424 22.107984000000002 9.681144 22.085784 10.248 21.993432000000002C11.240232 21.831744 12.173064 21.42024 12.988536 20.78448C13.415952 20.45124 13.959648000000001 19.856208 14.301888000000002 19.347072C15.415056 17.691144 15.894863999999998 15.438936 15.572351999999999 13.383576C15.469680000000002 12.729336 15.295992 12.172704000000001 15.02316 11.623656C14.936712000000002 11.44968 14.87724 11.313816 14.890991999999999 11.321760000000001C14.954976 11.358672 15.368424000000001 11.691696 15.547728000000001 11.850744C15.771936 12.049584 15.861287999999998 12.096 16.02 12.096C16.302 12.096 16.514736000000003 11.886672 16.516968 11.607048C16.51848 11.418168 16.468824 11.334336 16.219872 11.105376C15.695231999999999 10.622856 14.829384 10.04088 14.50848 9.955055999999999C14.318976000000001 9.904368 14.078111999999999 10.003464 13.97772 10.173384L13.93716 10.242072 13.814952000000002 10.1496C13.747752 10.098744 13.582512 10.000176 13.447728 9.930552C13.312968 9.860952 13.210344000000001 9.796272 13.219728 9.786840000000002C13.229088 9.777384000000001 13.371576000000001 9.748032 13.53636 9.721632C15.383928 9.425400000000002 17.471328 9.890184 18.900000000000002 10.91592C19.959888000000003 11.676864 20.616552000000002 12.616536 20.917752 13.803287999999998C21.001128 14.131824 21.047520000000002 14.470824 21.069864 14.915136000000002C21.085872 15.233832000000001 21.097968 15.31776 21.139560000000003 15.399312000000002C21.237576 15.591432000000001 21.412560000000003 15.685535999999999 21.637152 15.666912C21.788136 15.654384 21.90708 15.58248 22.002384 15.446136000000001C22.061256 15.361944000000001 22.068863999999998 15.327576 22.076376000000003 15.112416C22.08708 14.804952000000002 22.044792 14.328528000000002 21.971544 13.932C21.633 12.09876 20.509656 10.599864 18.752568 9.636792C17.45184 8.923848 15.744264 8.546808 14.232287999999999 8.638704C13.172352 8.703144 12.366287999999999 8.899175999999999 11.61972 9.274128000000001C11.49888 9.334824000000001 11.400048 9.376272 11.400096000000001 9.36624C11.400288 9.334536 11.740488000000001 8.896392 11.952336 8.655072C12.208608 8.363112000000001 12.24 8.305752 12.24 8.129184C12.24 7.757976000000001 11.894496 7.530552000000001 11.543735999999999 7.670903999999999C11.312112 7.763592 10.592712 8.690472 10.223472000000001 9.372C10.11036 9.580752 10.093512 9.629184 10.094016 9.744C10.094736 9.905472 10.164168 10.05024 10.285128 10.142496L10.370712000000001 10.207752 10.253400000000001 10.329888C10.096464 10.493256 10.006632 10.613712 9.905952 10.795728L9.822023999999999 10.947432 9.782976000000001 10.783728C9.590832 9.978048000000001 9.584352 8.8806 9.765912 7.8947519999999995C9.954264 6.872039999999999 10.371288 5.858592 10.91592 5.1000000000000005C11.676864 4.040112 12.616536 3.383448 13.803287999999998 3.082248C14.131824 2.998872 14.470824 2.95248 14.915136000000002 2.930136C15.233832000000001 2.914128 15.31776 2.902032 15.399312000000002 2.86044C15.591432000000001 2.762424 15.685535999999999 2.58744 15.666912 2.362848C15.654384 2.211888 15.58248 2.09292 15.44616 1.9976159999999998C15.355920000000001 1.9345200000000002 15.339816 1.931856 15.02616 1.928376C14.846784 1.926408 14.602920000000001 1.934472 14.484264 1.946352M7.298640000000001 2.6292C7.204896000000001 2.66988 6.868248 3.00936 6.765599999999999 3.166704C6.706583999999999 3.2571600000000003 6.696 3.297528 6.696 3.432C6.696 3.5655119999999996 6.706919999999999 3.607848 6.765096000000001 3.699552C6.856368000000001 3.8434800000000005 6.974184 3.9138960000000003 7.146599999999999 3.927552C7.346592 3.943392 7.461192 3.878304 7.715928000000001 3.604272C7.9411439999999995 3.361992 8.014944 3.233568 8.014944 3.084C8.014944 2.902848 7.877352 2.6950320000000003 7.710768 2.62464C7.610256 2.58216 7.401696 2.584464 7.298640000000001 2.6292M5.937336 4.691832C5.8713120000000005 4.724760000000001 5.79372 4.783512 5.764968 4.8224160000000005C5.602320000000001 5.0424240000000005 5.38956 5.88684 5.3292 6.5520000000000005C5.285976 7.028544 5.293920000000001 7.175256 5.371056 7.3228800000000005C5.548032 7.66164 6.003552 7.690104 6.223968 7.37616C6.289776000000001 7.2824160000000004 6.295296 7.256112000000001 6.314712 6.944159999999999C6.353928000000001 6.314088 6.407903999999999 6.005808 6.566159999999999 5.508C6.612336 5.3628 6.65064 5.1948 6.651312 5.134656C6.653544 4.933896000000001 6.543528 4.765392 6.354096 4.6794C6.214295999999999 4.615944 6.08172 4.619904 5.937336 4.691832M16.821768000000002 5.215848C16.66356 5.299367999999999 16.576439999999998 5.438064000000001 16.564512 5.6253839999999995C16.552824 5.80884 16.594535999999998 5.912568 16.728768000000002 6.03384C16.844568 6.138456000000001 16.950167999999998 6.167688000000001 17.212775999999998 6.1678560000000004C17.628672 6.168144 18.16152 6.262152 18.66 6.42324C18.983184 6.527664 19.13088 6.527304 19.289687999999998 6.42168C19.5138 6.272615999999999 19.577832 5.946864000000001 19.425624 5.7303120000000005C19.335168 5.6016 19.257 5.557584 18.915792 5.443224C18.409056 5.2734 17.70672 5.160288 17.157768 5.1600719999999995C16.962984000000002 5.160024 16.911264 5.168592 16.821768000000002 5.215848M14.624160000000002 5.625888000000001C14.181096 5.793696 13.666008000000001 6.043704 13.259784 6.288143999999999C12.853776 6.53244 12.804 6.59424 12.804 6.854184C12.804 7.008936 12.811968 7.0392 12.877056 7.131936C12.970991999999999 7.265712 13.120248 7.349064 13.269912 7.35132C13.410336000000001 7.353432 13.488048 7.322664 13.764000000000001 7.155576C14.082816 6.962568000000001 14.634744 6.69804 15.020832000000002 6.553176C15.288456 6.452783999999999 15.3786 6.407256 15.445248000000001 6.338856000000001C15.689904 6.08772 15.605064 5.66796 15.282432000000002 5.533152C15.125616 5.467608 14.992632 5.486352 14.624160000000002 5.625888000000001M20.591856 6.5490960000000005C20.334072000000003 6.633216000000001 20.183616 6.85368 20.21712 7.09812C20.238408000000003 7.253496 20.29836 7.33548 20.577264 7.590696C20.78352 7.779432 20.845152 7.822368000000001 20.94372 7.846007999999999C21.367848000000002 7.947768 21.699216 7.5204 21.502032 7.1259120000000005C21.456408000000003 7.034616 21.119880000000002 6.704376 20.974296 6.608016C20.880288 6.545808000000001 20.691167999999998 6.516672000000001 20.591856 6.5490960000000005M5.9554800000000006 8.592431999999999C5.777712 8.667576 5.64072 8.868168 5.6402399999999995 9.054048C5.639640000000001 9.283608000000001 6.033264 10.208232 6.385968 10.805712C6.611688000000001 11.188080000000001 6.65556 11.24376 6.777504 11.3028C7.137312 11.476968 7.561944 11.175936 7.5014400000000006 10.78956C7.492512 10.732608 7.417776000000001 10.577088 7.3219199999999995 10.416C7.092408 10.030248 6.916344 9.670176 6.758640000000001 9.264C6.575328 8.791824 6.539568000000001 8.72616 6.423456 8.648472C6.3446880000000005 8.595744 6.291576 8.580528 6.168 8.575224C6.0822 8.571552 5.98656 8.57928 5.9554800000000006 8.592431999999999M11.728752 10.641C11.523864 10.727304 11.352888 10.837223999999999 11.155488 11.009496C11.05896 11.093736 10.952016 11.17764 10.917816 11.195976C10.850328 11.23212 10.736784 11.459856 10.66764 11.697696C10.630416 11.825712000000001 10.630464 11.846928 10.668408 12.019368C10.756536 12.419927999999999 10.913616 12.723216 11.197175999999999 13.040232C11.311848 13.168439999999999 11.369496 13.21152 11.492112 13.2606C11.972280000000001 13.452816 12.380232 13.433231999999999 12.74004 13.200672C13.023743999999999 13.017312 13.254696000000001 12.727535999999999 13.34172 12.445728C13.501992 11.92668 13.375608 11.390592 13.00464 11.015928C12.735072 10.743672 12.472008 10.624488000000001 12.080328 10.597152C11.889744 10.583832 11.853744 10.58832 11.728752 10.641M17.076 12.687816C16.88268 12.789552 16.786535999999998 12.9654 16.80468 13.184064000000001C16.813655999999998 13.292304 16.845888000000002 13.365120000000001 17.002560000000003 13.631112C17.19288 13.954199999999998 17.416415999999998 14.40588 17.525592 14.688C17.558784 14.773800000000001 17.615472 14.922839999999999 17.651544 15.0192C17.729448 15.227376000000001 17.807448 15.32712 17.939016 15.38688C18.279768 15.541680000000001 18.648 15.310656 18.648 14.942088C18.648 14.665872 18.261552000000002 13.772592 17.837232 13.068C17.683104 12.812064000000001 17.63352 12.754464 17.51496 12.693672000000001C17.404536 12.637032 17.178216 12.634008000000001 17.076 12.687816M3.089472 16.158936C2.806368 16.249848 2.6548800000000004 16.581768 2.776632 16.844376C2.8183920000000002 16.934448 3.1072080000000004 17.230848 3.273696 17.354544C3.53112 17.545752 3.867144 17.4744 4.025472000000001 17.194872C4.099176 17.064768 4.099392 16.867008000000002 4.026 16.732824C3.9699120000000003 16.630272 3.569448 16.246655999999998 3.458688 16.189392C3.363888 16.14036 3.191568 16.126152 3.089472 16.158936M18.349032 16.427208C18.262608 16.450392 18.202704 16.488072000000003 18.130008 16.565016C18.011400000000002 16.690535999999998 17.976 16.819104000000003 17.976 17.12436C17.976 17.513184 17.86608 18.114816 17.713224 18.562512C17.672952000000002 18.680471999999998 17.64024 18.820872 17.640528 18.874512C17.641920000000002 19.132776 17.879904 19.367256 18.141216 19.367856C18.259800000000002 19.368144 18.398448 19.306536 18.494088 19.21104C18.5778 19.127448 18.606456 19.069319999999998 18.68964 18.814536C18.879624 18.232608 18.984456 17.612616000000003 18.983472 17.076719999999998C18.982872 16.747464 18.950064 16.640496000000002 18.814776 16.52664C18.67776 16.411344 18.527736 16.379328 18.349032 16.427208M10.915296 16.654776C10.866504 16.664256 10.736904 16.724496000000002 10.627296 16.788648000000002C10.062144 17.11932 9.72948 17.278368 9.124728000000001 17.506992C8.915208 17.586192 8.82864 17.654208 8.761872 17.792136000000003C8.609736 18.106392 8.818200000000001 18.474552000000003 9.16188 18.498576C9.277248 18.50664 9.343872 18.492528 9.566232000000001 18.412896C10.095984 18.2232 10.535568000000001 18.013296 11.06904 17.69532C11.359656000000001 17.522088 11.458824 17.418912000000002 11.494463999999999 17.252712000000002C11.534880000000001 17.064312 11.489688000000001 16.917912 11.348544 16.779936C11.283696 16.716528 11.072184 16.62372 11.017631999999999 16.63476C11.010144 16.636272 10.964088 16.645272 10.915296 16.654776M5.074296 17.541432C4.946256 17.599584 4.833816 17.739024 4.799448 17.882304C4.749048 18.092351999999998 4.867248 18.343992 5.062536 18.442439999999998C5.1670799999999995 18.495168 5.567592 18.620040000000003 5.832 18.682392C6.202656 18.769776 6.542208 18.815160000000002 6.95292 18.8322C7.378896 18.849888 7.477992 18.826032 7.61688 18.672287999999998C7.76496 18.508392 7.788408 18.320472 7.686 18.11832C7.5783119999999995 17.905752 7.425816 17.83236 7.091280000000001 17.832144C6.67188 17.831832000000002 6.059592 17.723376000000002 5.605488 17.56896C5.360232 17.485536 5.214048 17.477952000000002 5.074296 17.541432M16.908 20.108736C16.8036 20.156256000000003 16.402632 20.57364 16.335383999999998 20.704800000000002C16.253736 20.864040000000003 16.294439999999998 21.116880000000002 16.424808 21.260328C16.558512 21.407472 16.831056 21.454344000000003 17.013047999999998 21.361512C17.108424 21.31284 17.437992 20.978352 17.535048 20.831712000000003C17.801184 20.429544 17.348904 19.908096 16.908 20.108736" stroke="none" fill="currentColor" fill-rule="evenodd" stroke-width="0.024"></path>
</svg>