<?xml version="1.0" encoding="UTF-8"?>
<svg version="1.1" viewBox="0 0 24 24" xmlns="http://www.w3.org/2000/svg">
 <path d="m9.5136 1.9464c2.0834 0.2083 3.7889 1.3697 4.8475 3.3011 0.71246 1.2999 1.0847 2.9867 0.99701 4.5181-0.06144 1.073-0.26453 1.8928-0.65981 2.6634-0.07152 0.13944-0.12782 0.25572-0.12511 0.25846 0.0101 0.01008 0.41599-0.31157 0.63367-0.5022 0.29304-0.25656 0.35705-0.28886 0.54835-0.2767 0.26191 0.01668 0.43625 0.18655 0.45998 0.44813 0.01898 0.2095-0.04051 0.31546-0.31308 0.55747-0.47422 0.4211-0.97303 0.77254-1.4498 1.0215-0.24041 0.12552-0.26506 0.1333-0.38323 0.1211-0.15497-0.01598-0.28994-0.0888-0.36346-0.19613l-0.05549-0.08098-0.1631 0.12602c-0.19766 0.15274-0.50664 0.31675-0.73054 0.38784l-0.16543 0.05251 0.11743 0.03806c0.92969 0.3012 2.1999 0.36259 3.3214 0.16051 1.474-0.26558 2.7233-0.88882 3.6325-1.8122 0.88306-0.89676 1.3403-1.9841 1.4051-3.3418 0.02059-0.43111 0.03595-0.48953 0.16162-0.61522 0.10915-0.10915 0.19901-0.14551 0.35674-0.14441 0.21559 0.00154 0.3727 0.10598 0.45473 0.30238 0.06526 0.15619 0.04306 0.74791-0.0493 1.3148-0.19939 1.2236-0.77076 2.3444-1.6406 3.2182-1.1668 1.172-2.728 1.8941-4.6448 2.1481-0.39283 0.05206-1.2846 0.07049-1.6956 0.03506-0.95304-0.08218-1.6919-0.27799-2.4144-0.63984-0.18809-0.09422-0.342-0.16579-0.342-0.15905 0 0.01865 0.25226 0.32813 0.4595 0.56376 0.10171 0.11561 0.19776 0.24912 0.21346 0.29669 0.06854 0.2077-0.02009 0.4572-0.20748 0.58414-0.11621 0.07872-0.34855 0.09653-0.4752 0.03643-0.23933-0.11357-0.92081-0.98297-1.2867-1.6415-0.18809-0.33854-0.20837-0.45804-0.11134-0.65635 0.044232-0.09041 0.092832-0.14638 0.16874-0.19435l0.10661-0.06739-0.07003-0.10378c-0.106-0.15707-0.24859-0.45867-0.31207-0.66006-0.099552-0.31584-0.13836-0.29681-0.23256 0.114-0.12739 0.55565-0.1729 0.96552-0.1729 1.5572 0 1.7144 0.57684 3.4078 1.5611 4.5827 0.95995 1.1459 2.1674 1.7339 3.7124 1.8077 0.43111 0.02059 0.48953 0.03595 0.61522 0.16162 0.10915 0.10915 0.14551 0.19901 0.14441 0.35674-0.0015 0.21559-0.10598 0.3727-0.30238 0.45473-0.15619 0.06526-0.74791 0.04306-1.3148-0.0493-0.99223-0.16168-1.9251-0.57319-2.7405-1.2089-0.42742-0.33324-0.97111-0.92827-1.3134-1.4374-1.1132-1.6559-1.593-3.9081-1.2705-5.9635 0.10267-0.65424 0.27636-1.2109 0.54919-1.7599 0.086448-0.17398 0.14592-0.30984 0.13217-0.3019-0.063984 0.03691-0.47743 0.36994-0.65674 0.52898-0.22421 0.19884-0.31356 0.24526-0.47227 0.24526-0.282 0-0.49474-0.20933-0.49697-0.48895-0.00151-0.18888 0.048144-0.27271 0.2971-0.50167 0.52464-0.48252 1.3905-1.0645 1.7114-1.1503 0.1895-0.050688 0.43037 0.048408 0.53076 0.21833l0.04056 0.06869 0.12221-0.09247c0.0672-0.05086 0.23244-0.14942 0.36722-0.21905 0.13476-0.0696 0.23738-0.13428 0.228-0.14371-0.00936-0.00946-0.15185-0.038812-0.31663-0.065212-1.8476-0.29623-3.935 0.16855-5.3636 1.1943-1.0599 0.76094-1.7166 1.7006-2.0178 2.8874-0.083376 0.32854-0.12977 0.66754-0.15211 1.1118-0.016008 0.3187-0.028104 0.40262-0.069696 0.48418-0.098016 0.19212-0.273 0.28622-0.49759 0.2676-0.15098-0.01253-0.26993-0.08443-0.36523-0.22078-0.058872-0.08419-0.06648-0.11856-0.073992-0.33372-0.010704-0.30746 0.031584-0.78389 0.10483-1.1804 0.33854-1.8332 1.4619-3.3321 3.219-4.2952 1.3007-0.71294 3.0083-1.09 4.5203-0.99809 1.0599 0.06444 1.866 0.26047 2.6126 0.63542 0.12084 0.060696 0.21967 0.10214 0.21962 0.092112-1.92e-4 -0.031704-0.34039-0.46985-0.55224-0.71117-0.25627-0.29196-0.28766-0.34932-0.28766-0.52589 0-0.37121 0.3455-0.59863 0.69626-0.45828 0.23162 0.092688 0.95102 1.0196 1.3203 1.7011 0.11311 0.20875 0.12996 0.25718 0.12946 0.372-7.2e-4 0.16147-0.07015 0.30624-0.19111 0.3985l-0.08558 0.06526 0.11731 0.12214c0.15694 0.16337 0.24677 0.28382 0.34745 0.46584l0.08393 0.1517 0.03905-0.1637c0.19214-0.80568 0.19862-1.9031 0.017056-2.889-0.18835-1.0227-0.60538-2.0362-1.15-2.7948-0.76094-1.0599-1.7006-1.7166-2.8874-2.0178-0.32854-0.083376-0.66754-0.12977-1.1118-0.15211-0.3187-0.016008-0.40262-0.028104-0.48418-0.069696-0.19212-0.098016-0.28622-0.273-0.2676-0.49759 0.012528-0.15096 0.084432-0.26993 0.22075-0.36523 0.09024-0.063096 0.10634-0.06576 0.42-0.06924 0.17938-0.00197 0.42324 0.0061 0.5419 0.017976m7.1856 0.68285c0.09374 0.04068 0.43039 0.38016 0.53304 0.5375 0.05902 0.090456 0.0696 0.13082 0.0696 0.2653 0 0.13351-0.01092 0.17585-0.0691 0.26755-0.09127 0.14393-0.20909 0.21434-0.3815 0.228-0.19999 0.01584-0.31459-0.049248-0.56932-0.32328-0.22522-0.24228-0.29902-0.3707-0.29902-0.52027 0-0.18115 0.13759-0.38897 0.30418-0.45936 0.10051-0.04248 0.30907-0.040176 0.41213 0.00456m1.3613 2.0626c0.06602 0.032928 0.14362 0.09168 0.17237 0.13058 0.16265 0.22001 0.37541 1.0644 0.43577 1.7296 0.04322 0.47654 0.03528 0.62326-0.04186 0.77088-0.17697 0.33876-0.63249 0.36722-0.85291 0.05328-0.065808-0.093744-0.071328-0.12005-0.090744-0.432-0.039216-0.63007-0.093192-0.93835-0.25145-1.4362-0.046176-0.1452-0.08448-0.3132-0.085152-0.37334-0.0022-0.20076 0.10778-0.36926 0.29722-0.45526 0.1398-0.063456 0.27238-0.059496 0.41676 0.012432m-10.884 0.52402c0.15821 0.08352 0.24533 0.22222 0.25726 0.40954 0.011688 0.18346-0.030024 0.28718-0.16426 0.40846-0.1158 0.10462-0.2214 0.13385-0.48401 0.13402-0.4159 2.88e-4 -0.94874 0.094296-1.4472 0.25538-0.32318 0.10442-0.47088 0.10406-0.62969-0.00156-0.22411-0.14906-0.28814-0.47482-0.13594-0.69137 0.090456-0.12871 0.16862-0.17273 0.50983-0.28709 0.50674-0.16982 1.2091-0.28294 1.758-0.28315 0.19478-4.8e-5 0.2465 0.00852 0.336 0.055776m2.1976 0.41004c0.44306 0.16781 0.95815 0.41782 1.3644 0.66226 0.40601 0.2443 0.45578 0.3061 0.45578 0.56604 0 0.15475-8e-3 0.18502-0.07306 0.27775-0.093932 0.13378-0.24319 0.21713-0.39285 0.21938-0.14042 0.002112-0.21814-0.028656-0.49409-0.19574-0.31882-0.19301-0.87074-0.45754-1.2568-0.6024-0.26762-0.10039-0.35777-0.14592-0.42442-0.21432-0.24466-0.25114-0.15982-0.6709 0.16282-0.8057 0.15682-0.065544 0.2898-0.0468 0.65827 0.092736m-5.9677 0.92321c0.25778 0.08412 0.40824 0.30458 0.37474 0.54902-0.021288 0.15538-0.08124 0.23736-0.36014 0.49258-0.20626 0.18874-0.26789 0.23167-0.36646 0.25531-0.42413 0.10176-0.7555-0.32561-0.55831-0.7201 0.045624-0.091296 0.38215-0.42154 0.52774-0.5179 0.094008-0.062208 0.28313-0.091344 0.38244-0.05892m14.636 2.0433c0.17777 0.075144 0.31476 0.27574 0.31524 0.46162 6e-4 0.22956-0.39302 1.1542-0.74573 1.7517-0.22572 0.38237-0.26959 0.43805-0.39154 0.49709-0.35981 0.17417-0.78444-0.12686-0.72394-0.51324 0.0089-0.05695 0.08366-0.21247 0.17952-0.37356 0.22951-0.38575 0.40558-0.74582 0.56328-1.152 0.18331-0.47218 0.21907-0.53784 0.33518-0.61553 0.07877-0.052728 0.13188-0.067944 0.25546-0.073248 0.0858-0.00367 0.18144 0.00406 0.21252 0.017208m-5.7733 2.0486c0.20489 0.0863 0.37586 0.19622 0.57326 0.3685 0.09653 0.08424 0.20347 0.16814 0.23767 0.18648 0.06749 0.03614 0.18103 0.26388 0.25018 0.50172 0.03722 0.12802 0.03718 0.14923-7.68e-4 0.32167-0.08813 0.40056-0.24521 0.70385-0.52877 1.0209-0.11467 0.12821-0.17232 0.17129-0.29494 0.22037-0.48017 0.19222-0.88812 0.17263-1.2479-0.05993-0.2837-0.18336-0.51466-0.47314-0.60168-0.75494-0.16027-0.51905-0.03389-1.0551 0.33708-1.4298 0.26957-0.27226 0.53263-0.39144 0.92431-0.41878 0.19058-0.01332 0.22658-0.0088 0.35158 0.04385m-5.3472 2.0468c0.19332 0.10174 0.28946 0.27758 0.27132 0.49625-0.00898 0.10824-0.041208 0.18106-0.19788 0.44705-0.19032 0.32309-0.41386 0.77477-0.52303 1.0569-0.033192 0.0858-0.08988 0.23484-0.12595 0.3312-0.077904 0.20818-0.1559 0.30792-0.28747 0.36768-0.34075 0.1548-0.70898-0.07622-0.70898-0.44479 0-0.27622 0.38645-1.1695 0.81077-1.8741 0.15413-0.25594 0.20371-0.31354 0.32227-0.37433 0.11042-0.05664 0.33674-0.05966 0.43896-0.0059m13.987 3.4711c0.2831 0.09091 0.43459 0.42283 0.31284 0.68544-0.04176 0.09007-0.33058 0.38647-0.49706 0.51017-0.25742 0.19121-0.59345 0.11986-0.75178-0.15967-0.0737-0.1301-0.07392-0.32786-5.28e-4 -0.46205 0.05609-0.10255 0.45655-0.48617 0.56731-0.54343 0.0948-0.04903 0.26712-0.06324 0.36922-0.03046m-15.26 0.26832c0.086424 0.02318 0.14633 0.06086 0.21902 0.13781 0.11861 0.12552 0.15401 0.25409 0.15401 0.55934 0 0.38882 0.10992 0.99046 0.26278 1.4382 0.040272 0.11796 0.072984 0.25836 0.072696 0.312-0.00139 0.25826-0.23938 0.49274-0.50069 0.49334-0.11858 2.88e-4 -0.25723-0.06132-0.35287-0.15682-0.083712-0.08359-0.11237-0.14172-0.19555-0.3965-0.18998-0.58193-0.29482-1.2019-0.29383-1.7378 6e-4 -0.32926 0.033408-0.43622 0.1687-0.55008 0.13702-0.1153 0.28704-0.14731 0.46574-0.09943m7.4337 0.22757c0.04879 0.0095 0.17839 0.06972 0.288 0.13387 0.56515 0.33067 0.89782 0.48972 1.5026 0.71834 0.20952 0.0792 0.29609 0.14722 0.36286 0.28514 0.15214 0.31426-0.05633 0.68242-0.40001 0.70644-0.11537 0.0081-0.18199-6e-3 -0.40435-0.08568-0.52975-0.1897-0.96934-0.3996-1.5028-0.71758-0.29062-0.17323-0.38978-0.27641-0.42542-0.44261-0.04042-0.1884 0.0048-0.3348 0.14592-0.47278 0.06485-0.06341 0.27636-0.15622 0.33091-0.14518 0.0075 0.0015 0.05354 0.01051 0.10234 0.02002m5.841 0.88666c0.12804 0.05815 0.24048 0.19759 0.27485 0.34087 0.0504 0.21005-0.0678 0.46169-0.26309 0.56014-0.10454 0.05273-0.50506 0.1776-0.76946 0.23995-0.37066 0.08738-0.71021 0.13277-1.1209 0.14981-0.42598 0.01769-0.52507-0.0062-0.66396-0.15991-0.14808-0.1639-0.17153-0.35182-0.06912-0.55397 0.10769-0.21257 0.26018-0.28596 0.59472-0.28618 0.4194-3.12e-4 1.0317-0.10877 1.4858-0.26318 0.24526-0.08342 0.39144-0.09101 0.53119-0.02753m-11.834 2.5673c0.1044 0.04752 0.50537 0.4649 0.57262 0.59606 0.081648 0.15924 0.040944 0.41208-0.089424 0.55553-0.1337 0.14714-0.40625 0.19402-0.58824 0.10118-0.095376-0.04867-0.42494-0.38316-0.522-0.5298-0.26614-0.40217 0.18614-0.92362 0.62705-0.72298" fill="currentColor" fill-rule="evenodd" stroke-width=".024"/>
</svg>
